<mxfile host="app.diagrams.net" agent="Mozilla/5.0 (Windows NT 10.0; Win64; x64; rv:132.0) Gecko/20100101 Firefox/132.0" version="24.8.4">
  <diagram name="Page-1" id="u6eBkQ65T8Mz_VV77TJo">
    <mxGraphModel dx="1434" dy="773" grid="1" gridSize="10" guides="1" tooltips="1" connect="1" arrows="1" fold="1" page="1" pageScale="1" pageWidth="1400" pageHeight="850" math="0" shadow="0">
      <root>
        <mxCell id="0" />
        <mxCell id="1" parent="0" />
        <mxCell id="fYthQo7zW96hQPWO7dhh-1" value="Medico" style="swimlane;fontStyle=1;align=center;verticalAlign=top;childLayout=stackLayout;horizontal=1;startSize=26;horizontalStack=0;resizeParent=1;resizeParentMax=0;resizeLast=0;collapsible=1;marginBottom=0;whiteSpace=wrap;html=1;" parent="1" vertex="1">
          <mxGeometry x="320" y="370" width="160" height="98" as="geometry" />
        </mxCell>
        <mxCell id="fYthQo7zW96hQPWO7dhh-2" value="&lt;div&gt;+ nombre: String&lt;br&gt;+ fechaIngreso: LocalDate&lt;/div&gt;&lt;div&gt;+ honorarios: double&lt;/div&gt;" style="text;strokeColor=none;fillColor=none;align=left;verticalAlign=top;spacingLeft=4;spacingRight=4;overflow=hidden;rotatable=0;points=[[0,0.5],[1,0.5]];portConstraint=eastwest;whiteSpace=wrap;html=1;" parent="fYthQo7zW96hQPWO7dhh-1" vertex="1">
          <mxGeometry y="26" width="160" height="64" as="geometry" />
        </mxCell>
        <mxCell id="fYthQo7zW96hQPWO7dhh-3" value="" style="line;strokeWidth=1;fillColor=none;align=left;verticalAlign=middle;spacingTop=-1;spacingLeft=3;spacingRight=3;rotatable=0;labelPosition=right;points=[];portConstraint=eastwest;strokeColor=inherit;" parent="fYthQo7zW96hQPWO7dhh-1" vertex="1">
          <mxGeometry y="90" width="160" height="8" as="geometry" />
        </mxCell>
        <mxCell id="fYthQo7zW96hQPWO7dhh-5" value="Mascota" style="swimlane;fontStyle=1;align=center;verticalAlign=top;childLayout=stackLayout;horizontal=1;startSize=26;horizontalStack=0;resizeParent=1;resizeParentMax=0;resizeLast=0;collapsible=1;marginBottom=0;whiteSpace=wrap;html=1;" parent="1" vertex="1">
          <mxGeometry x="400" y="150" width="170" height="140" as="geometry" />
        </mxCell>
        <mxCell id="fYthQo7zW96hQPWO7dhh-6" value="&lt;div&gt;+ nombre: String&lt;br&gt;+ fechaNacimiento: LocalDate&lt;/div&gt;&lt;div&gt;+ especie: String&lt;/div&gt;" style="text;strokeColor=none;fillColor=none;align=left;verticalAlign=top;spacingLeft=4;spacingRight=4;overflow=hidden;rotatable=0;points=[[0,0.5],[1,0.5]];portConstraint=eastwest;whiteSpace=wrap;html=1;" parent="fYthQo7zW96hQPWO7dhh-5" vertex="1">
          <mxGeometry y="26" width="170" height="64" as="geometry" />
        </mxCell>
        <mxCell id="fYthQo7zW96hQPWO7dhh-7" value="" style="line;strokeWidth=1;fillColor=none;align=left;verticalAlign=middle;spacingTop=-1;spacingLeft=3;spacingRight=3;rotatable=0;labelPosition=right;points=[];portConstraint=eastwest;strokeColor=inherit;" parent="fYthQo7zW96hQPWO7dhh-5" vertex="1">
          <mxGeometry y="90" width="170" height="8" as="geometry" />
        </mxCell>
        <mxCell id="fYthQo7zW96hQPWO7dhh-8" value="&lt;div&gt;+getRecaudacionGenerada&lt;/div&gt;&lt;div&gt;(LocalDate): double;&lt;br&gt;&lt;/div&gt;" style="text;strokeColor=none;fillColor=none;align=left;verticalAlign=top;spacingLeft=4;spacingRight=4;overflow=hidden;rotatable=0;points=[[0,0.5],[1,0.5]];portConstraint=eastwest;whiteSpace=wrap;html=1;" parent="fYthQo7zW96hQPWO7dhh-5" vertex="1">
          <mxGeometry y="98" width="170" height="42" as="geometry" />
        </mxCell>
        <mxCell id="fYthQo7zW96hQPWO7dhh-9" value="&amp;lt;abstract&amp;gt;&lt;div&gt;Servicio&lt;/div&gt;" style="swimlane;fontStyle=1;align=center;verticalAlign=top;childLayout=stackLayout;horizontal=1;startSize=40;horizontalStack=0;resizeParent=1;resizeParentMax=0;resizeLast=0;collapsible=1;marginBottom=0;whiteSpace=wrap;html=1;" parent="1" vertex="1">
          <mxGeometry x="730" y="110" width="160" height="152" as="geometry" />
        </mxCell>
        <mxCell id="qxtdGm-kfvefDZI7abFl-3" value="+ fechaAtencion: LocalDate" style="text;html=1;align=center;verticalAlign=middle;resizable=0;points=[];autosize=1;strokeColor=none;fillColor=none;" vertex="1" parent="fYthQo7zW96hQPWO7dhh-9">
          <mxGeometry y="40" width="160" height="30" as="geometry" />
        </mxCell>
        <mxCell id="fYthQo7zW96hQPWO7dhh-11" value="" style="line;strokeWidth=1;fillColor=none;align=left;verticalAlign=middle;spacingTop=-1;spacingLeft=3;spacingRight=3;rotatable=0;labelPosition=right;points=[];portConstraint=eastwest;strokeColor=inherit;" parent="fYthQo7zW96hQPWO7dhh-9" vertex="1">
          <mxGeometry y="70" width="160" height="40" as="geometry" />
        </mxCell>
        <mxCell id="fYthQo7zW96hQPWO7dhh-12" value="&lt;div&gt;+ calcularCosto(): double&lt;br&gt;&lt;/div&gt;" style="text;strokeColor=none;fillColor=none;align=left;verticalAlign=top;spacingLeft=4;spacingRight=4;overflow=hidden;rotatable=0;points=[[0,0.5],[1,0.5]];portConstraint=eastwest;whiteSpace=wrap;html=1;" parent="fYthQo7zW96hQPWO7dhh-9" vertex="1">
          <mxGeometry y="110" width="160" height="42" as="geometry" />
        </mxCell>
        <mxCell id="fYthQo7zW96hQPWO7dhh-17" value="ConsultaMedica" style="swimlane;fontStyle=1;align=center;verticalAlign=top;childLayout=stackLayout;horizontal=1;startSize=26;horizontalStack=0;resizeParent=1;resizeParentMax=0;resizeLast=0;collapsible=1;marginBottom=0;whiteSpace=wrap;html=1;" parent="1" vertex="1">
          <mxGeometry x="500" y="520" width="160" height="34" as="geometry" />
        </mxCell>
        <mxCell id="fYthQo7zW96hQPWO7dhh-19" value="" style="line;strokeWidth=1;fillColor=none;align=left;verticalAlign=middle;spacingTop=-1;spacingLeft=3;spacingRight=3;rotatable=0;labelPosition=right;points=[];portConstraint=eastwest;strokeColor=inherit;" parent="fYthQo7zW96hQPWO7dhh-17" vertex="1">
          <mxGeometry y="26" width="160" height="8" as="geometry" />
        </mxCell>
        <mxCell id="fYthQo7zW96hQPWO7dhh-21" value="Vacunacion" style="swimlane;fontStyle=1;align=center;verticalAlign=top;childLayout=stackLayout;horizontal=1;startSize=26;horizontalStack=0;resizeParent=1;resizeParentMax=0;resizeLast=0;collapsible=1;marginBottom=0;whiteSpace=wrap;html=1;" parent="1" vertex="1">
          <mxGeometry x="720" y="520" width="160" height="98" as="geometry" />
        </mxCell>
        <mxCell id="fYthQo7zW96hQPWO7dhh-22" value="&lt;div&gt;+ vacuna: String&lt;/div&gt;&lt;div&gt;+ costo: double&lt;br&gt;&lt;/div&gt;" style="text;strokeColor=none;fillColor=none;align=left;verticalAlign=top;spacingLeft=4;spacingRight=4;overflow=hidden;rotatable=0;points=[[0,0.5],[1,0.5]];portConstraint=eastwest;whiteSpace=wrap;html=1;" parent="fYthQo7zW96hQPWO7dhh-21" vertex="1">
          <mxGeometry y="26" width="160" height="64" as="geometry" />
        </mxCell>
        <mxCell id="fYthQo7zW96hQPWO7dhh-23" value="" style="line;strokeWidth=1;fillColor=none;align=left;verticalAlign=middle;spacingTop=-1;spacingLeft=3;spacingRight=3;rotatable=0;labelPosition=right;points=[];portConstraint=eastwest;strokeColor=inherit;" parent="fYthQo7zW96hQPWO7dhh-21" vertex="1">
          <mxGeometry y="90" width="160" height="8" as="geometry" />
        </mxCell>
        <mxCell id="fYthQo7zW96hQPWO7dhh-33" style="rounded=0;orthogonalLoop=1;jettySize=auto;html=1;exitX=0.5;exitY=0;exitDx=0;exitDy=0;endArrow=block;endFill=0;" parent="1" source="fYthQo7zW96hQPWO7dhh-25" edge="1">
          <mxGeometry relative="1" as="geometry">
            <mxPoint x="780" y="270" as="targetPoint" />
          </mxGeometry>
        </mxCell>
        <mxCell id="fYthQo7zW96hQPWO7dhh-25" value="&lt;div&gt;&amp;lt;abstract&amp;gt;&lt;/div&gt;&lt;div&gt;ServicioIntervenido&lt;/div&gt;" style="swimlane;fontStyle=1;align=center;verticalAlign=top;childLayout=stackLayout;horizontal=1;startSize=40;horizontalStack=0;resizeParent=1;resizeParentMax=0;resizeLast=0;collapsible=1;marginBottom=0;whiteSpace=wrap;html=1;" parent="1" vertex="1">
          <mxGeometry x="610" y="310" width="160" height="48" as="geometry" />
        </mxCell>
        <mxCell id="fYthQo7zW96hQPWO7dhh-27" value="" style="line;strokeWidth=1;fillColor=none;align=left;verticalAlign=middle;spacingTop=-1;spacingLeft=3;spacingRight=3;rotatable=0;labelPosition=right;points=[];portConstraint=eastwest;strokeColor=inherit;" parent="fYthQo7zW96hQPWO7dhh-25" vertex="1">
          <mxGeometry y="40" width="160" height="8" as="geometry" />
        </mxCell>
        <mxCell id="fYthQo7zW96hQPWO7dhh-29" value="Guarderia" style="swimlane;fontStyle=1;align=center;verticalAlign=top;childLayout=stackLayout;horizontal=1;startSize=26;horizontalStack=0;resizeParent=1;resizeParentMax=0;resizeLast=0;collapsible=1;marginBottom=0;whiteSpace=wrap;html=1;" parent="1" vertex="1">
          <mxGeometry x="950" y="520" width="160" height="98" as="geometry" />
        </mxCell>
        <mxCell id="fYthQo7zW96hQPWO7dhh-30" value="&lt;div&gt;+ cantDias: int&lt;br&gt;&lt;/div&gt;" style="text;strokeColor=none;fillColor=none;align=left;verticalAlign=top;spacingLeft=4;spacingRight=4;overflow=hidden;rotatable=0;points=[[0,0.5],[1,0.5]];portConstraint=eastwest;whiteSpace=wrap;html=1;" parent="fYthQo7zW96hQPWO7dhh-29" vertex="1">
          <mxGeometry y="26" width="160" height="64" as="geometry" />
        </mxCell>
        <mxCell id="fYthQo7zW96hQPWO7dhh-31" value="" style="line;strokeWidth=1;fillColor=none;align=left;verticalAlign=middle;spacingTop=-1;spacingLeft=3;spacingRight=3;rotatable=0;labelPosition=right;points=[];portConstraint=eastwest;strokeColor=inherit;" parent="fYthQo7zW96hQPWO7dhh-29" vertex="1">
          <mxGeometry y="90" width="160" height="8" as="geometry" />
        </mxCell>
        <mxCell id="fYthQo7zW96hQPWO7dhh-34" style="rounded=0;orthogonalLoop=1;jettySize=auto;html=1;exitX=0.5;exitY=0;exitDx=0;exitDy=0;endArrow=block;endFill=0;" parent="1" edge="1">
          <mxGeometry relative="1" as="geometry">
            <mxPoint x="680" y="360" as="targetPoint" />
            <mxPoint x="580" y="520" as="sourcePoint" />
          </mxGeometry>
        </mxCell>
        <mxCell id="fYthQo7zW96hQPWO7dhh-35" style="rounded=0;orthogonalLoop=1;jettySize=auto;html=1;exitX=0.5;exitY=0;exitDx=0;exitDy=0;endArrow=block;endFill=0;" parent="1" edge="1">
          <mxGeometry relative="1" as="geometry">
            <mxPoint x="700" y="360" as="targetPoint" />
            <mxPoint x="800" y="520" as="sourcePoint" />
          </mxGeometry>
        </mxCell>
        <mxCell id="fYthQo7zW96hQPWO7dhh-36" style="rounded=0;orthogonalLoop=1;jettySize=auto;html=1;exitX=0.5;exitY=0;exitDx=0;exitDy=0;endArrow=block;endFill=0;" parent="1" edge="1">
          <mxGeometry relative="1" as="geometry">
            <mxPoint x="830" y="270" as="targetPoint" />
            <mxPoint x="1040" y="520" as="sourcePoint" />
          </mxGeometry>
        </mxCell>
        <mxCell id="fYthQo7zW96hQPWO7dhh-37" style="edgeStyle=orthogonalEdgeStyle;rounded=0;orthogonalLoop=1;jettySize=auto;html=1;entryX=1;entryY=0.563;entryDx=0;entryDy=0;entryPerimeter=0;exitX=0;exitY=1;exitDx=0;exitDy=0;" parent="1" source="fYthQo7zW96hQPWO7dhh-25" target="fYthQo7zW96hQPWO7dhh-2" edge="1">
          <mxGeometry relative="1" as="geometry">
            <mxPoint x="610" y="382.03200000000004" as="sourcePoint" />
          </mxGeometry>
        </mxCell>
        <mxCell id="fYthQo7zW96hQPWO7dhh-38" value="medico 1" style="edgeLabel;html=1;align=center;verticalAlign=middle;resizable=0;points=[];" parent="fYthQo7zW96hQPWO7dhh-37" vertex="1" connectable="0">
          <mxGeometry x="0.356" y="1" relative="1" as="geometry">
            <mxPoint as="offset" />
          </mxGeometry>
        </mxCell>
        <mxCell id="fYthQo7zW96hQPWO7dhh-39" value="" style="endArrow=diamondThin;endFill=1;endSize=24;html=1;rounded=0;entryX=1.004;entryY=0.353;entryDx=0;entryDy=0;entryPerimeter=0;" parent="1" target="fYthQo7zW96hQPWO7dhh-6" edge="1">
          <mxGeometry width="160" relative="1" as="geometry">
            <mxPoint x="730" y="200" as="sourcePoint" />
            <mxPoint x="720" y="211.70999999999998" as="targetPoint" />
          </mxGeometry>
        </mxCell>
        <mxCell id="fYthQo7zW96hQPWO7dhh-40" value="servicios *" style="edgeLabel;html=1;align=center;verticalAlign=middle;resizable=0;points=[];" parent="fYthQo7zW96hQPWO7dhh-39" vertex="1" connectable="0">
          <mxGeometry x="0.2604" y="-2" relative="1" as="geometry">
            <mxPoint as="offset" />
          </mxGeometry>
        </mxCell>
        <mxCell id="fYthQo7zW96hQPWO7dhh-42" style="edgeStyle=orthogonalEdgeStyle;rounded=0;orthogonalLoop=1;jettySize=auto;html=1;entryX=1.012;entryY=0.766;entryDx=0;entryDy=0;entryPerimeter=0;" parent="1" source="fYthQo7zW96hQPWO7dhh-9" edge="1" target="fYthQo7zW96hQPWO7dhh-6">
          <mxGeometry relative="1" as="geometry">
            <mxPoint x="560" y="246" as="targetPoint" />
            <Array as="points">
              <mxPoint x="650" y="225" />
              <mxPoint x="650" y="225" />
            </Array>
          </mxGeometry>
        </mxCell>
        <mxCell id="fYthQo7zW96hQPWO7dhh-43" value="mascota 1" style="edgeLabel;html=1;align=center;verticalAlign=middle;resizable=0;points=[];" parent="1" vertex="1" connectable="0">
          <mxGeometry x="689.9974335698083" y="229.99806113829771" as="geometry" />
        </mxCell>
      </root>
    </mxGraphModel>
  </diagram>
</mxfile>
